<?xml version="1.0" standalone="no"?>
<!DOCTYPE svg PUBLIC "-//W3C//DTD SVG 20010904//EN"
 "http://www.w3.org/TR/2001/REC-SVG-20010904/DTD/svg10.dtd">
<svg version="1.0" xmlns="http://www.w3.org/2000/svg"
 width="512.000000pt" height="512.000000pt" viewBox="0 0 512.000000 512.000000"
 preserveAspectRatio="xMidYMid meet">

<g transform="translate(0.000000,512.000000) scale(0.100000,-0.100000)"
fill="#000000" stroke="none">
<path d="M435 4836 c-79 -35 -94 -84 -95 -314 l0 -182 -170 -340 -170 -340 0
-142 c0 -180 11 -253 48 -333 52 -110 139 -187 257 -227 l50 -17 3 -1040 2
-1041 -88 0 c-74 0 -96 -4 -139 -25 -105 -53 -133 -120 -133 -322 0 -161 9
-196 59 -226 27 -16 189 -17 2501 -17 2312 0 2474 1 2501 17 50 30 59 65 59
226 0 202 -28 269 -133 322 -43 21 -65 25 -139 25 l-88 0 2 1041 3 1042 40 12
c134 40 233 134 285 270 20 52 23 84 28 245 l5 185 -169 335 -169 335 -5 205
c-5 225 -11 248 -73 294 l-28 21 -1751 3 -1752 2 -23 -22 c-38 -35 -29 -89 18
-113 24 -13 257 -15 1739 -15 l1710 0 0 -145 0 -145 -2065 0 -2066 0 3 143 3
142 198 5 c194 5 199 6 218 29 26 32 24 73 -4 99 -22 21 -31 22 -233 22 -151
-1 -217 -4 -239 -14z m1112 -598 c-2 -7 -28 -124 -57 -260 l-54 -248 -268 0
c-147 0 -268 4 -268 8 0 4 41 120 90 257 50 137 90 251 90 252 0 2 106 3 236
3 185 0 235 -3 231 -12z m1262 -160 c6 -95 15 -212 18 -260 l6 -88 -273 0
-273 0 6 88 c3 48 12 165 18 260 l12 172 237 0 237 0 12 -172z m1231 169 c0
-1 41 -115 90 -252 50 -137 90 -253 90 -257 0 -4 -121 -8 -268 -8 l-268 0 -54
248 c-29 136 -55 253 -57 260 -4 9 46 12 231 12 130 0 236 -1 236 -3z m-2622
-814 c-3 -129 -6 -153 -25 -189 -112 -211 -408 -205 -504 11 -19 41 -23 73
-27 188 l-5 137 283 0 282 0 -4 -147z m1422 24 c0 -152 -14 -207 -72 -272
-113 -128 -303 -128 -416 0 -58 65 -72 120 -72 272 l0 123 280 0 280 0 0 -123z
m1418 -14 c-4 -115 -8 -147 -27 -188 -96 -216 -392 -222 -504 -11 -19 36 -22
60 -25 189 l-4 147 282 0 283 0 -5 -137z m-3328 -450 c71 -41 136 -56 234 -51
117 5 201 41 281 122 l55 55 28 -35 c38 -49 132 -110 200 -129 41 -12 83 -16
148 -13 78 3 100 8 158 37 38 19 90 56 119 85 l52 51 52 -51 c29 -30 81 -66
119 -85 66 -33 73 -34 184 -34 111 0 118 1 184 34 38 19 90 55 119 85 l52 51
52 -51 c29 -29 81 -66 119 -85 58 -29 80 -34 158 -37 65 -3 107 1 148 13 68
19 162 80 200 129 l28 35 55 -55 c80 -81 164 -117 281 -122 75 -4 104 0 157
17 72 24 160 83 194 129 l23 31 53 -53 c55 -56 113 -91 182 -111 l40 -12 3
-1042 2 -1041 -1410 0 -1410 0 0 848 c0 787 -1 849 -18 881 -9 19 -30 44 -45
55 -28 21 -39 21 -510 21 l-482 0 -31 -22 c-67 -48 -64 -1 -64 -937 l0 -846
-65 0 -65 0 2 1042 3 1042 41 12 c69 20 122 52 177 108 l52 53 55 -52 c30 -28
71 -61 90 -72z m700 -1303 l0 -820 -137 0 c-76 0 -263 -3 -415 -7 l-278 -6 0
826 0 827 415 0 415 0 0 -820z m2870 -1125 l0 -145 -2175 0 -2175 0 0 99 c0
120 12 158 54 177 26 11 391 13 2164 14 l2132 0 0 -145z"/>
<path d="M2025 2650 c-23 -11 -50 -35 -60 -52 -19 -32 -20 -54 -20 -673 0
-713 -4 -672 68 -715 31 -19 60 -20 1169 -20 l1136 0 33 27 c60 51 59 33 59
715 0 688 2 664 -63 712 -28 21 -39 21 -527 21 -493 0 -500 0 -520 -21 -29
-28 -29 -79 -1 -107 21 -22 24 -22 486 -25 l465 -3 0 -584 0 -585 -1075 0
-1075 0 0 585 0 585 445 0 c489 0 508 2 521 56 9 37 -6 76 -36 91 -19 10 -138
13 -495 13 -450 0 -472 -1 -510 -20z"/>
<path d="M1386 1839 c-25 -20 -26 -24 -26 -124 0 -100 1 -104 26 -124 15 -12
37 -21 49 -21 12 0 34 9 49 21 25 20 26 24 26 124 0 100 -1 104 -26 124 -15
12 -37 21 -49 21 -12 0 -34 -9 -49 -21z"/>
</g>
</svg>
